<svg width="55" height="57" viewBox="0 0 55 57" fill="none" xmlns="http://www.w3.org/2000/svg">
<mask id="mask0" mask-type="alpha" maskUnits="userSpaceOnUse" x="2" y="14" width="51" height="26">
<path d="M37.2354 32.6653H34.3329C33.5067 32.6653 32.7446 32.2176 32.3389 31.4938L27.2272 22.3742L21.2602 37.9516C20.5386 39.8355 17.9271 39.9393 17.0599 38.1185L11.9934 27.4811L9.49941 31.5675C9.08311 32.2496 8.34442 32.6653 7.54861 32.6653H4.61027C3.3461 32.6653 2.32129 31.6347 2.32129 30.3633C2.32129 29.0918 3.3461 28.0612 4.61027 28.0612H6.26782L10.2909 21.4693C11.2394 19.9151 13.5227 20.0344 14.306 21.6791L18.896 31.3161L24.7008 16.1622C25.3965 14.3459 27.8803 14.1637 28.8307 15.8593L35.6702 28.0612H36.8119C37.5459 24.3727 40.784 21.5938 44.6674 21.5938C49.092 21.5938 52.6788 25.2011 52.6788 29.651C52.6788 34.101 49.092 37.7083 44.6674 37.7083C41.3025 37.7083 38.4221 35.622 37.2354 32.6653ZM44.6674 33.1042C46.5636 33.1042 48.1009 31.5581 48.1009 29.651C48.1009 27.7439 46.5636 26.1979 44.6674 26.1979C42.7711 26.1979 41.2339 27.7439 41.2339 29.651C41.2339 31.5581 42.7711 33.1042 44.6674 33.1042Z" fill="white"/>
</mask>
<g mask="url(#mask0)">
<path d="M37.2354 32.6653H34.3329C33.5067 32.6653 32.7446 32.2176 32.3389 31.4938L27.2272 22.3742L21.2602 37.9516C20.5386 39.8355 17.9271 39.9393 17.0599 38.1185L11.9934 27.4811L9.49941 31.5675C9.08311 32.2496 8.34442 32.6653 7.54861 32.6653H4.61027C3.3461 32.6653 2.32129 31.6347 2.32129 30.3633C2.32129 29.0918 3.3461 28.0612 4.61027 28.0612H6.26782L10.2909 21.4693C11.2394 19.9151 13.5227 20.0344 14.306 21.6791L18.896 31.3161L24.7008 16.1622C25.3965 14.3459 27.8803 14.1637 28.8307 15.8593L35.6702 28.0612H36.8119C37.5459 24.3727 40.784 21.5938 44.6674 21.5938C49.092 21.5938 52.6788 25.2011 52.6788 29.651C52.6788 34.101 49.092 37.7083 44.6674 37.7083C41.3025 37.7083 38.4221 35.622 37.2354 32.6653ZM44.6674 33.1042C46.5636 33.1042 48.1009 31.5581 48.1009 29.651C48.1009 27.7439 46.5636 26.1979 44.6674 26.1979C42.7711 26.1979 41.2339 27.7439 41.2339 29.651C41.2339 31.5581 42.7711 33.1042 44.6674 33.1042Z" fill="#181818"/>
<path d="M54.9677 0.875H0.0322266V56.125H54.9677V0.875Z" fill="url(#paint0_linear)"/>
</g>
<defs>
<linearGradient id="paint0_linear" x1="27.5" y1="0.875" x2="27.5" y2="56.125" gradientUnits="userSpaceOnUse">
<stop stop-color="#1786FA"/>
<stop offset="1" stop-color="#3CC5FC"/>
</linearGradient>
</defs>
</svg>
