<svg width="48" height="48" viewBox="0 0 48 48" fill="none" xmlns="http://www.w3.org/2000/svg">
<g clip-path="url(#clip0)">
<path d="M47.9973 16.1137C47.7789 5.20613 34.4685 -2.83248 24 6.32128C13.5385 -2.82657 0.221204 5.20078 0.00271271 16.1137C-0.0773695 20.1119 1.61702 23.9614 4.90245 27.2461C4.91136 27.2555 11.5714 33.8789 23.0077 45.253C23.5564 45.7989 24.4434 45.799 24.9923 45.253L43.0975 27.2461C46.383 23.9615 48.0773 20.1119 47.9973 16.1137ZM24 42.2718L8.55219 26.9078H13.4948C13.989 26.9078 14.447 26.6486 14.7012 26.225L15.7811 24.4257L19.8114 30.7575C20.4042 31.689 21.796 31.6047 22.2699 30.6045L27.8321 18.865L31.7655 26.1682C32.0109 26.6237 32.4866 26.9079 33.0043 26.9079H39.4476L24 42.2718ZM42.1693 24.0946H33.8448L28.9906 15.082C28.4464 14.0717 26.9749 14.103 26.4804 15.1467L20.8176 27.0983L16.9329 20.9953C16.3665 20.105 15.0726 20.1386 14.5395 21.0267L12.6983 24.0947H5.83099C3.79874 21.6511 2.76067 18.9373 2.816 16.1701C2.99164 7.39939 14.1717 0.410478 23.0052 9.24165C23.5541 9.79051 24.4455 9.79097 24.9948 9.24165C36.2732 -2.03419 51.7785 12.5423 42.1693 24.0946Z" fill="url(#paint0_linear)"/>
</g>
<defs>
<linearGradient id="paint0_linear" x1="24" y1="2.33716" x2="24" y2="45.6625" gradientUnits="userSpaceOnUse">
<stop stop-color="#1786FA"/>
<stop offset="1" stop-color="#3CC5FC"/>
</linearGradient>
<clipPath id="clip0">
<rect width="48" height="48" fill="white"/>
</clipPath>
</defs>
</svg>
