<svg width="45" height="48" viewBox="0 0 45 48" fill="none" xmlns="http://www.w3.org/2000/svg">
<path d="M11.6412 4.3125C12.7158 4.3125 13.7211 4.63563 14.5462 5.1925L13.7419 7.17938C13.1873 6.6775 12.4524 6.375 11.6412 6.375C9.908 6.375 8.52141 7.75 8.52141 9.46875C8.52141 11.1875 9.908 12.5625 11.6412 12.5625C12.3553 12.5625 13.007 12.3287 13.5339 11.93L14.3243 13.8894C13.5409 14.3569 12.6257 14.625 11.6412 14.625C10.2622 14.625 8.93962 14.0818 7.96448 13.1148C6.98934 12.1478 6.44152 10.8363 6.44152 9.46875C6.44152 8.10123 6.98934 6.78972 7.96448 5.82273C8.93962 4.85575 10.2622 4.3125 11.6412 4.3125ZM4.36163 2.9375C4.91325 2.9375 5.44228 3.1548 5.83233 3.54159C6.22239 3.92839 6.44152 4.45299 6.44152 5C6.44152 5.54701 6.22239 6.07161 5.83233 6.45841C5.44228 6.8452 4.91325 7.0625 4.36163 7.0625C3.81001 7.0625 3.28098 6.8452 2.89092 6.45841C2.50087 6.07161 2.28174 5.54701 2.28174 5C2.28174 4.45299 2.50087 3.92839 2.89092 3.54159C3.28098 3.1548 3.81001 2.9375 4.36163 2.9375ZM4.36163 4.3125C4.17775 4.3125 4.00141 4.38493 3.87139 4.51386C3.74137 4.6428 3.66833 4.81766 3.66833 5C3.66833 5.18234 3.74137 5.3572 3.87139 5.48614C4.00141 5.61507 4.17775 5.6875 4.36163 5.6875C4.5455 5.6875 4.72184 5.61507 4.85186 5.48614C4.98188 5.3572 5.05492 5.18234 5.05492 5C5.05492 4.81766 4.98188 4.6428 4.85186 4.51386C4.72184 4.38493 4.5455 4.3125 4.36163 4.3125Z" fill="#181818"/>
<g clip-path="url(#clip0)">
<path fill-rule="evenodd" clip-rule="evenodd" d="M25.1605 45.2188C27.8408 45.2188 30.0135 43.0641 30.0135 40.4062C30.0135 38.6249 29.0376 37.0697 27.587 36.2376V13.9435C27.587 12.6112 26.51 11.5312 25.1605 11.5312C23.8203 11.5312 22.7339 12.6105 22.7339 13.9435V36.2376C21.2833 37.0697 20.3074 38.6249 20.3074 40.4062C20.3074 43.0641 22.4802 45.2188 25.1605 45.2188ZM25.1605 47.625C21.1401 47.625 17.8809 44.3931 17.8809 40.4062C17.8809 38.2683 18.8181 36.3474 20.3074 35.0256V13.9441C20.3074 11.2751 22.4802 9.125 25.1605 9.125C27.8353 9.125 30.0135 11.2826 30.0135 13.9441V35.0256C31.5028 36.3474 32.4401 38.2683 32.4401 40.4062C32.4401 44.3931 29.1809 47.625 25.1605 47.625Z" fill="#181818"/>
<path fill-rule="evenodd" clip-rule="evenodd" d="M25.1603 44.0156C27.1705 44.0156 28.8001 42.3997 28.8001 40.4062C28.8001 38.4128 27.1705 36.7969 25.1603 36.7969C23.1501 36.7969 21.5205 38.4128 21.5205 40.4062C21.5205 42.3997 23.1501 44.0156 25.1603 44.0156Z" fill="#1786FA"/>
<path fill-rule="evenodd" clip-rule="evenodd" d="M25.1605 12.7344C24.4905 12.7344 23.9473 13.2631 23.9473 13.9405V37.997C23.9473 38.6631 24.4858 39.2031 25.1605 39.2031C25.8306 39.2031 26.3738 38.6744 26.3738 37.997V13.9405C26.3738 13.2744 25.8353 12.7344 25.1605 12.7344Z" fill="#1786FA"/>
</g>
<defs>
<clipPath id="clip0">
<rect width="38.8246" height="38.5" fill="white" transform="translate(5.74805 9.125)"/>
</clipPath>
</defs>
</svg>
